# xmcd CD database file generated by Grip 3.0.7
# 
# Track frame offsets:
#       150
#       21439
#       35573
#       54147
#       66157
#       85128
#       99531
#       121776
#       136162
#       150656
# 
# Disc length: 2254 seconds
# 
# Revision: 1
# Processed by: cddbd v1.5.1PL0 Copyright (c) Steve Scherf et al.
# Submitted via: Grip 3.0.7
# 
DISCID=7808cc0a
DTITLE=Neil Young - Comes a Time
DYEAR=1978
DGENRE=Rock
TTITLE0=Goin' Back
TTITLE1=Comes a Time
TTITLE2=Look Out for My Love
TTITLE3=Lotta Love
TTITLE4=Peace of Mind
TTITLE5=Human Highway
TTITLE6=Already One
TTITLE7=Field of Opportunity
TTITLE8=Motorcycle Mama
TTITLE9=Four Strong Winds
EXTD=
EXTT0=
EXTT1=
EXTT2=
EXTT3=
EXTT4=
EXTT5=
EXTT6=
EXTT7=
EXTT8=
EXTT9=
PLAYORDER=
